<mxfile host="www.draw.io" modified="2019-12-27T01:00:48.958Z" agent="Mozilla/5.0 (Windows NT 10.0; WOW64) AppleWebKit/537.36 (KHTML, like Gecko) Chrome/79.0.3945.88 Safari/537.36" etag="-6yT0f2vXFjwtYPlmOA2" version="12.4.3" type="github" pages="1">
  <diagram id="d3ZmdaXeZq3puHHUPWUV" name="Page-1">
    <mxGraphModel dx="1038" dy="507" grid="1" gridSize="10" guides="1" tooltips="1" connect="1" arrows="1" fold="1" page="1" pageScale="1" pageWidth="827" pageHeight="1169" math="0" shadow="0">
      <root>
        <mxCell id="0"/>
        <mxCell id="1" parent="0"/>
        <mxCell id="z5dq-s-z24m1kX__NAqN-1" value="" style="whiteSpace=wrap;html=1;aspect=fixed;" vertex="1" parent="1">
          <mxGeometry x="190" y="560" width="100" height="100" as="geometry"/>
        </mxCell>
        <mxCell id="z5dq-s-z24m1kX__NAqN-2" value="" style="strokeWidth=2;html=1;shape=mxgraph.flowchart.direct_data;whiteSpace=wrap;" vertex="1" parent="1">
          <mxGeometry x="190" y="470" width="100" height="60" as="geometry"/>
        </mxCell>
        <mxCell id="z5dq-s-z24m1kX__NAqN-3" value="" style="strokeWidth=2;html=1;shape=mxgraph.flowchart.annotation_1;align=left;pointerEvents=1;" vertex="1" parent="1">
          <mxGeometry x="140" y="500" width="50" height="100" as="geometry"/>
        </mxCell>
        <mxCell id="z5dq-s-z24m1kX__NAqN-4" value="" style="strokeWidth=2;html=1;shape=mxgraph.flowchart.sequential_data;whiteSpace=wrap;" vertex="1" parent="1">
          <mxGeometry x="363" y="350" width="97" height="70" as="geometry"/>
        </mxCell>
        <mxCell id="z5dq-s-z24m1kX__NAqN-5" value="" style="verticalLabelPosition=bottom;verticalAlign=top;html=1;shape=mxgraph.flowchart.sort;" vertex="1" parent="1">
          <mxGeometry x="530" y="350" width="100" height="100" as="geometry"/>
        </mxCell>
        <mxCell id="z5dq-s-z24m1kX__NAqN-6" value="" style="endArrow=classic;startArrow=classic;html=1;exitX=0.946;exitY=0.714;exitDx=0;exitDy=0;exitPerimeter=0;entryX=0;entryY=0.5;entryDx=0;entryDy=0;entryPerimeter=0;" edge="1" parent="1" source="z5dq-s-z24m1kX__NAqN-4" target="z5dq-s-z24m1kX__NAqN-5">
          <mxGeometry width="50" height="50" relative="1" as="geometry">
            <mxPoint x="470" y="440" as="sourcePoint"/>
            <mxPoint x="520" y="390" as="targetPoint"/>
          </mxGeometry>
        </mxCell>
      </root>
    </mxGraphModel>
  </diagram>
</mxfile>
